# xmcd
#
# Track frame offsets:
#	150
#	13674
#	26759
#	39486
#	56290
#	71759
#	86441
#	97608
#	113340
#	125900
#	142676
#	162240
#	175121
#	190498
#	201745
#	216615
#	234592
#	249860
#	265229
#	276543
#	292075
#	305636
#
# Disc length: 4318 seconds
#
# Revision: 2
# Processed by: cddbd v1.4b41PL1 Copyright (c) Steve Scherf et al.
# Submitted via: audiograbber 1.80
#
DISCID=4710dc16
DTITLE=Various Country Artists - Contempory Country - The Mid 80s - Pure Gold
DYEAR=1900
DGENRE=
TTITLE0=Randy Travis - Diggin Up Bones
TTITLE1=Merle Haggard - Let's Chase Each Other Around The Room
TTITLE2=John Anderson - She Sure Got Away With My Heart
TTITLE3=Gary Morris - I'll Never Stop Loving You
TTITLE4=Reba McEntire - Whoever's In New England
TTITLE5=The Nitty Gritty Dirt Band - High Horse
TTITLE6=Conway Twitty - Desperado Love
TTITLE7=The Statler Brothers - Elizabeth
TTITLE8=Janie Frickie - She's Single Again
TTITLE9=David Allen Coe - Mona Lisa Lost Her Smile
TTITLE10=Crystal Gayle - Cry
TTITLE11=Dwight Yoakam - Honky Tonk Man
TTITLE12=The Judds - Have Mercy
TTITLE13=George Jones - She's My Rock
TTITLE14=The Forester Sisters - I Fell In Love Again Last Night
TTITLE15=Ronnie Milsap - She Keeps The Home Fires Burning
TTITLE16=John Schneider - You're The Last Thing I Needed Tonight
TTITLE17=Dolly Parton - Tennessee Homesick Blues
TTITLE18=Eddy Raven - I Got Mexico
TTITLE19=Alabama - If You're Gonna Play In Texas
TTITLE20=Hank Williams Jr. - All My Rowdy Friends Are Coming Over Tonight
TTITLE21=The Bellamy Brothers - Old Hippie
EXTD=added artists names\n
EXTT0=
EXTT1=
EXTT2=
EXTT3=
EXTT4=
EXTT5=
EXTT6=
EXTT7=
EXTT8=
EXTT9=
EXTT10=
EXTT11=
EXTT12=
EXTT13=
EXTT14=
EXTT15=
EXTT16=
EXTT17=
EXTT18=
EXTT19=
EXTT20=
EXTT21=
PLAYORDER=
